<svg xmlns="http://www.w3.org/2000/svg" viewBox="0 0 400 400" width="512" height="512">
  <rect width="400" height="400" fill="#ffffff"/>
<g id="svgg"><path id="path0" d="" stroke="none" fill="#000000" fill-rule="evenodd"></path><path id="path1" d="M121.944 90.264 C 84.514 93.878,58.594 123.726,58.594 163.214 C 58.594 205.834,88.131 236.396,129.297 236.371 C 165.797 236.348,190.061 215.769,193.942 181.543 L 194.197 179.297 175.833 179.297 L 157.470 179.297 157.219 181.152 C 155.120 196.668,145.095 205.116,128.739 205.152 C 107.846 205.198,95.313 189.498,95.313 163.281 C 95.313 135.051,110.362 118.610,133.594 121.459 C 146.385 123.028,154.807 129.955,157.016 140.723 L 157.477 142.969 175.849 142.969 L 194.220 142.969 193.950 140.137 C 191.015 109.398,158.319 86.752,121.944 90.264 M210.938 111.133 L 210.938 129.297 218.164 129.297 L 225.391 129.297 225.391 130.840 C 225.391 138.469,219.183 146.604,212.402 147.862 L 210.938 148.134 210.938 155.910 L 210.938 163.687 212.012 163.443 C 225.599 160.363,233.012 155.060,238.173 144.727 C 241.877 137.311,242.248 134.484,242.464 112.012 L 242.648 92.969 226.793 92.969 L 210.938 92.969 210.938 111.133 M285.938 129.071 C 259.173 132.493,245.607 146.081,249.380 165.688 C 252.031 179.471,260.406 185.204,285.819 190.631 C 310.300 195.860,313.281 197.350,313.281 204.356 C 313.281 210.186,308.899 213.820,300.517 214.942 C 289.384 216.431,280.180 210.916,279.078 202.095 L 278.816 200.000 262.924 200.000 L 247.033 200.000 247.348 203.290 C 249.260 223.206,265.070 234.878,292.029 236.278 C 325.231 238.002,346.875 224.004,346.875 200.809 C 346.875 185.851,336.805 175.871,318.037 172.231 C 286.892 166.189,282.617 164.402,282.617 157.422 C 282.617 151.979,286.333 150.022,296.695 150.007 C 306.314 149.993,311.033 152.699,312.184 158.887 L 312.638 161.328 327.999 161.328 L 343.359 161.328 343.359 160.403 C 343.359 150.425,336.688 139.808,327.407 135.015 C 317.153 129.719,300.048 127.268,285.938 129.071 " stroke="none" fill="#ffffff" fill-rule="evenodd"></path><path id="path2" d="" stroke="none" fill="#7f0000" fill-rule="evenodd"></path><path id="path3" d="" stroke="none" fill="#7f3f00" fill-rule="evenodd"></path><path id="path4" d="" stroke="none" fill="#aa0000" fill-rule="evenodd"></path><path id="path5" d="" stroke="none" fill="#bf3f1f" fill-rule="evenodd"></path><path id="path6" d="" stroke="none" fill="#cc3300" fill-rule="evenodd"></path><path id="path7" d="" stroke="none" fill="#d65114" fill-rule="evenodd"></path><path id="path8" d="" stroke="none" fill="#da4800" fill-rule="evenodd"></path><path id="path9" d="" stroke="none" fill="#e64224" fill-rule="evenodd"></path><path id="path10" d="M386.130 166.406 C 386.130 219.795,386.175 241.636,386.230 214.941 C 386.286 188.247,386.286 144.565,386.230 117.871 C 386.175 91.177,386.130 113.018,386.130 166.406 " stroke="none" fill="#de6220" fill-rule="evenodd"></path><path id="path11" d="" stroke="none" fill="#e75c00" fill-rule="evenodd"></path><path id="path12" d="" stroke="none" fill="#f25219" fill-rule="evenodd"></path><path id="path13" d="" stroke="none" fill="#fa5924" fill-rule="evenodd"></path><path id="path14" d="M44.141 39.335 C 30.993 40.782,19.552 49.666,15.567 61.523 L 14.648 64.258 14.548 212.843 C 14.449 359.116,14.459 361.419,15.194 360.889 C 16.034 360.285,39.539 340.614,39.844 340.261 C 39.951 340.137,40.654 339.565,41.406 338.991 C 42.158 338.416,43.237 337.538,43.803 337.040 C 45.280 335.738,71.189 314.080,75.742 310.340 C 76.258 309.917,76.967 309.307,77.318 308.984 C 77.668 308.662,78.565 307.933,79.310 307.364 C 80.055 306.795,81.016 305.999,81.445 305.595 C 81.875 305.191,85.242 302.363,88.927 299.310 L 95.627 293.759 226.622 293.649 C 370.275 293.528,358.045 293.728,364.802 291.390 C 375.003 287.859,383.022 279.370,385.337 269.649 C 385.913 267.229,385.959 257.914,385.856 165.234 L 385.742 63.477 384.627 60.581 C 380.630 50.204,371.925 42.849,360.160 39.910 C 357.795 39.319,49.382 38.758,44.141 39.335 M142.291 90.991 C 171.248 96.175,191.836 115.672,193.981 139.945 L 194.249 142.976 175.772 142.875 L 157.295 142.773 156.802 140.357 C 152.359 118.571,116.402 114.078,103.408 133.685 C 89.953 153.989,93.711 188.453,110.627 199.879 C 121.755 207.396,138.754 206.899,148.329 198.777 C 152.609 195.146,157.031 186.318,157.031 181.404 C 157.031 179.171,155.905 179.297,175.823 179.297 L 194.141 179.297 194.141 180.625 C 194.141 186.629,190.564 199.249,186.968 205.936 C 167.804 241.573,110.081 247.506,79.505 216.982 C 69.366 206.860,61.464 191.296,59.580 177.734 C 51.937 122.738,90.968 81.804,142.291 90.991 M242.578 110.264 C 242.578 128.010,242.348 131.924,240.991 137.247 C 237.895 149.385,229.941 158.171,218.703 161.865 C 217.188 162.363,211.720 163.672,211.153 163.672 C 211.035 163.672,210.938 160.197,210.938 155.949 L 210.938 148.227 213.065 147.586 C 219.945 145.512,225.391 138.027,225.391 130.645 L 225.391 129.297 218.164 129.297 L 210.938 129.297 210.938 111.133 L 210.938 92.969 226.758 92.969 L 242.578 92.969 242.578 110.264 M305.730 128.912 C 307.852 129.129,310.024 129.394,310.556 129.499 C 311.088 129.605,312.490 129.851,313.672 130.046 C 330.902 132.894,343.359 145.465,343.359 160.004 L 343.359 161.328 327.947 161.328 L 312.535 161.328 312.297 159.863 C 311.243 153.374,307.101 150.499,298.232 150.104 C 288.046 149.649,282.872 151.971,282.595 157.123 C 282.261 163.323,288.373 166.492,307.617 170.095 C 326.802 173.687,329.090 174.374,334.739 178.232 C 353.413 190.987,350.231 219.160,328.906 229.876 C 307.006 240.882,271.201 238.062,257.061 224.219 C 251.016 218.300,246.916 208.747,246.877 200.488 C 246.875 200.106,250.331 200.000,262.860 200.000 L 278.844 200.000 279.044 201.074 C 279.154 201.665,279.357 202.852,279.495 203.711 C 281.852 218.402,313.264 218.947,313.264 204.297 C 313.264 198.944,309.323 195.865,300.002 193.937 C 299.678 193.870,297.217 193.293,294.531 192.653 C 291.846 192.014,289.033 191.383,288.281 191.252 C 260.503 186.392,249.876 178.444,248.942 161.828 C 247.879 142.936,260.516 132.159,287.695 128.778 C 290.305 128.454,302.118 128.541,305.730 128.912 " stroke="none" fill="#ff6a2d" fill-rule="evenodd"></path></g>
</svg>
