<?xml version="1.0" encoding="UTF-8"?>
<svg id="Capa_2" data-name="Capa 2" xmlns="http://www.w3.org/2000/svg" viewBox="0 0 162.52 279.08">
  <defs>
    <style>
      .cls-1 {
        fill: #1c1c1c;
      }

      .cls-2 {
        fill: #e61455;
      }
    </style>
  </defs>
  <g id="Capa_1-2" data-name="Capa 1">
    <g>
      <path class="cls-1" d="m.02.01c48.91.14,97.82.16,146.73.06,5.25,0,10.51.09,15.76-.07.04,12.55,0,25.1.02,37.66H0C.01,25.12-.02,12.57.02.01Z"/>
      <path class="cls-2" d="m63.48,62.27c18.1-2.66,37.12-1.22,54.08,5.94,12.8,5.36,24.1,14.59,31.17,26.6,6.05,10,8.87,21.68,9.31,33.29-14.53.06-29.05-.07-43.57.07-1-7.23-3.82-14.52-9.5-19.35-7.3-6.46-17.39-8.63-26.9-8.38-8,.35-16.49,2.26-22.26,8.14-6.88,6.66-6.9,18.72-.6,25.76,6,6.64,14.87,9.31,23.17,11.69,19.77,5.3,40.86,7.72,58.71,18.44,12.03,7.03,20.59,18.76,23.6,32.36,3.54,16.65,2.32,35.08-6.88,49.79-9.11,14.93-25.08,24.49-41.73,28.79-16.34,4.19-33.4,4.8-50,1.78-16.85-3.17-33-11.4-44.27-24.54C6.27,239.26.3,221.5,0,203.93c14.59.07,29.18.1,43.77,0,.83,8,3.28,16.1,8.46,22.44,6.81,8.6,18,12.87,28.75,12.9,9.29.26,19.17-1.19,26.85-6.79,7.9-5.94,10.75-16.49,6.93-25.6-2.36-5.1-7.16-8.48-12.07-10.88-7.58-3.56-15.76-5.57-23.85-7.58-18.76-4.73-38.72-8.88-54-21.51-10.89-8.9-17.11-22.41-18.37-36.22-1.9-14.46,1-29.88,9.73-41.75,10.89-15.3,29.08-23.87,47.28-26.67Z"/>
    </g>
  </g>
</svg>