<?xml version="1.0" encoding="UTF-8" standalone="no"?>
<!-- Created with Inkscape (http://www.inkscape.org/) -->

<svg
   xmlns:dc="http://purl.org/dc/elements/1.1/"
   xmlns:cc="http://creativecommons.org/ns#"
   xmlns:rdf="http://www.w3.org/1999/02/22-rdf-syntax-ns#"
   xmlns:svg="http://www.w3.org/2000/svg"
   xmlns="http://www.w3.org/2000/svg"
   xmlns:sodipodi="http://sodipodi.sourceforge.net/DTD/sodipodi-0.dtd"
   xmlns:inkscape="http://www.inkscape.org/namespaces/inkscape"
   width="80.555557mm"
   height="80.555542mm"
   viewBox="0 0 285.43308 285.43302"
   id="svg2"
   version="1.1"
   inkscape:version="0.91 r13725"
   sodipodi:docname="Logo de UPyD (logotipo compacto).svg">
  <defs
     id="defs4" />
  <sodipodi:namedview
     id="base"
     pagecolor="#ffffff"
     bordercolor="#666666"
     borderopacity="1.0"
     inkscape:pageopacity="0.0"
     inkscape:pageshadow="2"
     inkscape:zoom="0.49497475"
     inkscape:cx="-181.36654"
     inkscape:cy="307.76912"
     inkscape:document-units="px"
     inkscape:current-layer="layer1"
     showgrid="false"
     showguides="false"
     fit-margin-bottom="5"
     fit-margin-right="5"
     fit-margin-top="5"
     fit-margin-left="5"
     inkscape:window-width="1366"
     inkscape:window-height="705"
     inkscape:window-x="-8"
     inkscape:window-y="-8"
     inkscape:window-maximized="1" />
  <metadata
     id="metadata7">
    <rdf:RDF>
      <cc:Work
         rdf:about="">
        <dc:format>image/svg+xml</dc:format>
        <dc:type
           rdf:resource="http://purl.org/dc/dcmitype/StillImage" />
        <dc:title></dc:title>
      </cc:Work>
    </rdf:RDF>
  </metadata>
  <g
     inkscape:label="Capa 1"
     inkscape:groupmode="layer"
     id="layer1"
     transform="translate(-110.58388,-441.07833)">
    <g
       id="g3473"
       transform="matrix(0.49885966,0,0,0.49885966,64.296512,355.20568)">
      <path
         id="path3347-5"
         d="M 629.44327,458.22337 A 250.57143,250.57143 0 0 1 378.87184,708.7948 250.57143,250.57143 0 0 1 128.30041,458.22337 250.57143,250.57143 0 0 1 378.87184,207.65195 250.57143,250.57143 0 0 1 629.44327,458.22337 Z"
         style="fill:#ffffff;fill-opacity:1;fill-rule:evenodd;stroke:none;stroke-width:0.99281883px;stroke-linecap:butt;stroke-linejoin:miter;stroke-opacity:1"
         inkscape:connector-curvature="0" />
      <path
         id="path3347"
         d="m 378.87109,207.65234 a 250.57143,250.57143 0 0 0 -85.67773,15.32618 l 90.32617,160.74804 88.69141,-157.84179 A 250.57143,250.57143 0 0 0 378.87109,207.65234 Z M 172.79492,315.78125 a 250.57143,250.57143 0 0 0 -44.49414,142.44141 250.57143,250.57143 0 0 0 174.24024,238.54882 l 0,-180.98437 -129.7461,-200.00586 z m 413.29297,1.97656 -128.24805,197.70117 0,180.23633 A 250.57143,250.57143 0 0 0 629.44336,458.22266 250.57143,250.57143 0 0 0 586.08789,317.75781 Z"
         style="fill:#ec008c;fill-opacity:1;fill-rule:evenodd;stroke:none;stroke-width:0.99281883px;stroke-linecap:butt;stroke-linejoin:miter;stroke-opacity:1"
         inkscape:connector-curvature="0" />
    </g>
  </g>
</svg>
